<mxfile host="app.diagrams.net" modified="2024-05-03T17:08:30.310Z" agent="Mozilla/5.0 (Windows NT 10.0; Win64; x64) AppleWebKit/537.36 (KHTML, like Gecko) Chrome/124.0.0.0 Safari/537.36 Edg/124.0.0.0" etag="6A0-_qXb4s-cO2AN9ujz" version="24.3.1" type="google">
  <diagram name="PÃ¡gina-1" id="fM1ajchmwLF06lRkl0Bb">
    <mxGraphModel grid="1" page="1" gridSize="10" guides="1" tooltips="1" connect="1" arrows="1" fold="1" pageScale="1" pageWidth="827" pageHeight="1169" math="0" shadow="0">
      <root>
        <mxCell id="0" />
        <mxCell id="1" parent="0" />
        <mxCell id="GOJ_2FHO8yx_FiYxwXFI-3" value="" style="edgeStyle=orthogonalEdgeStyle;rounded=0;orthogonalLoop=1;jettySize=auto;html=1;" edge="1" parent="1" source="GOJ_2FHO8yx_FiYxwXFI-1" target="GOJ_2FHO8yx_FiYxwXFI-2">
          <mxGeometry relative="1" as="geometry" />
        </mxCell>
        <mxCell id="GOJ_2FHO8yx_FiYxwXFI-1" value="INICIO" style="ellipse;whiteSpace=wrap;html=1;" vertex="1" parent="1">
          <mxGeometry x="360" y="30" width="80" height="80" as="geometry" />
        </mxCell>
        <mxCell id="GOJ_2FHO8yx_FiYxwXFI-5" value="" style="edgeStyle=orthogonalEdgeStyle;rounded=0;orthogonalLoop=1;jettySize=auto;html=1;" edge="1" parent="1" source="GOJ_2FHO8yx_FiYxwXFI-2" target="GOJ_2FHO8yx_FiYxwXFI-4">
          <mxGeometry relative="1" as="geometry" />
        </mxCell>
        <mxCell id="GOJ_2FHO8yx_FiYxwXFI-2" value="UI = 1&lt;div&gt;result&lt;/div&gt;&lt;div&gt;i =1&lt;/div&gt;" style="whiteSpace=wrap;html=1;" vertex="1" parent="1">
          <mxGeometry x="340" y="140" width="120" height="60" as="geometry" />
        </mxCell>
        <mxCell id="GOJ_2FHO8yx_FiYxwXFI-7" value="" style="edgeStyle=orthogonalEdgeStyle;rounded=0;orthogonalLoop=1;jettySize=auto;html=1;" edge="1" parent="1" source="GOJ_2FHO8yx_FiYxwXFI-4" target="GOJ_2FHO8yx_FiYxwXFI-6">
          <mxGeometry relative="1" as="geometry" />
        </mxCell>
        <mxCell id="GOJ_2FHO8yx_FiYxwXFI-4" value="OUTPUT&lt;div&gt;&quot;U0 = 1&quot;&lt;/div&gt;" style="shape=parallelogram;perimeter=parallelogramPerimeter;whiteSpace=wrap;html=1;fixedSize=1;" vertex="1" parent="1">
          <mxGeometry x="340" y="230" width="120" height="60" as="geometry" />
        </mxCell>
        <mxCell id="GOJ_2FHO8yx_FiYxwXFI-11" value="" style="edgeStyle=orthogonalEdgeStyle;rounded=0;orthogonalLoop=1;jettySize=auto;html=1;" edge="1" parent="1" source="GOJ_2FHO8yx_FiYxwXFI-6" target="GOJ_2FHO8yx_FiYxwXFI-10">
          <mxGeometry relative="1" as="geometry" />
        </mxCell>
        <mxCell id="GOJ_2FHO8yx_FiYxwXFI-15" value="" style="edgeStyle=orthogonalEdgeStyle;rounded=0;orthogonalLoop=1;jettySize=auto;html=1;" edge="1" parent="1" source="GOJ_2FHO8yx_FiYxwXFI-6" target="GOJ_2FHO8yx_FiYxwXFI-14">
          <mxGeometry relative="1" as="geometry" />
        </mxCell>
        <mxCell id="GOJ_2FHO8yx_FiYxwXFI-6" value="10 &amp;gt;= i" style="rhombus;whiteSpace=wrap;html=1;" vertex="1" parent="1">
          <mxGeometry x="360" y="330" width="80" height="80" as="geometry" />
        </mxCell>
        <mxCell id="GOJ_2FHO8yx_FiYxwXFI-8" value="NO" style="text;html=1;align=center;verticalAlign=middle;resizable=0;points=[];autosize=1;strokeColor=none;fillColor=none;" vertex="1" parent="1">
          <mxGeometry x="430" y="338" width="40" height="30" as="geometry" />
        </mxCell>
        <mxCell id="GOJ_2FHO8yx_FiYxwXFI-9" value="SI" style="text;html=1;align=center;verticalAlign=middle;resizable=0;points=[];autosize=1;strokeColor=none;fillColor=none;" vertex="1" parent="1">
          <mxGeometry x="415" y="408" width="30" height="30" as="geometry" />
        </mxCell>
        <mxCell id="GOJ_2FHO8yx_FiYxwXFI-13" value="" style="edgeStyle=orthogonalEdgeStyle;rounded=0;orthogonalLoop=1;jettySize=auto;html=1;" edge="1" parent="1" source="GOJ_2FHO8yx_FiYxwXFI-10" target="GOJ_2FHO8yx_FiYxwXFI-12">
          <mxGeometry relative="1" as="geometry" />
        </mxCell>
        <mxCell id="GOJ_2FHO8yx_FiYxwXFI-10" value="result = UI / (i + 1)" style="whiteSpace=wrap;html=1;" vertex="1" parent="1">
          <mxGeometry x="340" y="450" width="120" height="60" as="geometry" />
        </mxCell>
        <mxCell id="GOJ_2FHO8yx_FiYxwXFI-17" value="" style="edgeStyle=orthogonalEdgeStyle;rounded=0;orthogonalLoop=1;jettySize=auto;html=1;" edge="1" parent="1" source="GOJ_2FHO8yx_FiYxwXFI-12" target="GOJ_2FHO8yx_FiYxwXFI-16">
          <mxGeometry relative="1" as="geometry" />
        </mxCell>
        <mxCell id="GOJ_2FHO8yx_FiYxwXFI-12" value="OUTPUT&lt;div&gt;&quot;U&quot;, i, &quot; = &quot;, UI&lt;/div&gt;" style="shape=parallelogram;perimeter=parallelogramPerimeter;whiteSpace=wrap;html=1;fixedSize=1;" vertex="1" parent="1">
          <mxGeometry x="340" y="540" width="120" height="60" as="geometry" />
        </mxCell>
        <mxCell id="GOJ_2FHO8yx_FiYxwXFI-14" value="FIN" style="ellipse;whiteSpace=wrap;html=1;" vertex="1" parent="1">
          <mxGeometry x="470" y="330" width="80" height="80" as="geometry" />
        </mxCell>
        <mxCell id="GOJ_2FHO8yx_FiYxwXFI-21" value="" style="edgeStyle=orthogonalEdgeStyle;rounded=0;orthogonalLoop=1;jettySize=auto;html=1;" edge="1" parent="1" source="GOJ_2FHO8yx_FiYxwXFI-16" target="GOJ_2FHO8yx_FiYxwXFI-20">
          <mxGeometry relative="1" as="geometry" />
        </mxCell>
        <mxCell id="GOJ_2FHO8yx_FiYxwXFI-16" value="UI = result" style="whiteSpace=wrap;html=1;" vertex="1" parent="1">
          <mxGeometry x="340" y="630" width="120" height="60" as="geometry" />
        </mxCell>
        <mxCell id="GOJ_2FHO8yx_FiYxwXFI-22" style="edgeStyle=orthogonalEdgeStyle;rounded=0;orthogonalLoop=1;jettySize=auto;html=1;entryX=0;entryY=0.5;entryDx=0;entryDy=0;" edge="1" parent="1" source="GOJ_2FHO8yx_FiYxwXFI-20" target="GOJ_2FHO8yx_FiYxwXFI-6">
          <mxGeometry relative="1" as="geometry">
            <Array as="points">
              <mxPoint x="280" y="370" />
            </Array>
          </mxGeometry>
        </mxCell>
        <mxCell id="GOJ_2FHO8yx_FiYxwXFI-20" value="++i" style="whiteSpace=wrap;html=1;" vertex="1" parent="1">
          <mxGeometry x="250" y="640" width="50" height="40" as="geometry" />
        </mxCell>
      </root>
    </mxGraphModel>
  </diagram>
</mxfile>
